<svg version="1.1" id="Layer_1" xmlns="http://www.w3.org/2000/svg" xmlns:xlink="http://www.w3.org/1999/xlink" x="0px" y="0px"
	 width="100%" viewBox="0 0 328 329" enable-background="new 0 0 328 329" xml:space="preserve">
<path fill="#229799" opacity="1.000000" stroke="none" 
	d="
M228.888535,189.996964 
	C228.567657,189.962891 228.319565,189.810425 227.917633,189.118637 
	C227.437912,188.461853 227.184814,188.225952 226.931732,187.990067 
	C226.931732,187.990067 227.009750,187.990753 226.849335,187.830444 
	C226.434982,187.444000 226.181046,187.217896 225.927094,186.991776 
	C225.927094,186.991776 226.009323,186.990692 225.850082,186.833160 
	C225.440277,186.446854 225.189713,186.218079 224.939148,185.989304 
	C224.939148,185.989304 225.011734,185.989212 224.850739,185.828415 
	C224.437668,185.441849 224.185623,185.216095 223.933563,184.990326 
	C223.933563,184.990326 224.010147,184.989975 223.850433,184.829559 
	C223.437698,184.443466 223.184708,184.217804 222.931702,183.992126 
	C222.931702,183.992126 223.008820,183.991547 222.848389,183.830933 
	C222.433792,183.443802 222.179642,183.217300 221.925507,182.990784 
	C221.925507,182.990784 222.009140,182.990036 221.850189,182.833038 
	C221.441086,182.447281 221.190948,182.218536 220.940796,181.989807 
	C220.940796,181.989807 221.014511,181.991211 220.853302,181.830322 
	C220.440781,181.442368 220.189468,181.215286 219.938171,180.988220 
	C219.938171,180.988220 220.009506,180.986404 219.848419,180.825256 
	C219.433075,180.439926 219.178818,180.215775 218.924576,179.991608 
	C218.924576,179.991608 219.009628,179.990646 218.848022,179.833542 
	C218.431961,179.447769 218.177490,179.219116 217.923035,178.990448 
	C217.923035,178.990448 218.011078,178.988785 217.848267,178.834839 
	C217.433167,178.450195 217.180893,178.219498 216.928619,177.988815 
	C216.928619,177.988815 217.014053,177.987442 216.844788,177.833923 
	C216.414856,177.454346 216.154175,177.228287 215.893509,177.002213 
	C201.436630,162.307571 186.965530,147.626831 172.539413,132.902054 
	C170.560776,130.882446 168.805847,128.643677 166.547440,126.046501 
	C161.375519,131.138596 156.780594,135.600388 152.253372,140.129852 
	C119.506294,172.893280 86.791946,205.689499 54.016338,238.424347 
	C48.582355,243.851593 42.889343,248.810211 34.934856,250.571472 
	C25.322844,252.699707 15.703479,246.901932 15.312820,237.285049 
	C15.035183,230.450409 18.610855,224.408218 22.708269,218.938705 
	C32.565727,205.780243 42.424545,192.622787 52.280510,179.463226 
	C65.367310,161.989853 78.455933,144.517853 91.536209,127.039604 
	C102.066963,112.968102 112.439285,98.775009 123.151566,84.843201 
	C134.320694,70.317261 148.996323,62.026001 167.599899,62.170525 
	C178.694550,62.256714 188.951797,66.397003 196.406982,74.298317 
	C206.596161,85.097183 215.698074,96.966118 224.796890,108.738968 
	C237.740860,125.487007 250.301529,142.532486 262.946625,159.509979 
	C276.653412,177.912933 290.342041,196.330429 303.872650,214.862793 
	C307.212799,219.437698 310.360931,224.269363 312.768982,229.373779 
	C314.951630,234.000549 315.054901,239.276947 311.083984,243.212830 
	C306.386871,247.868530 300.461334,251.370941 293.793030,249.455017 
	C288.627838,247.970978 283.267578,245.218231 279.400665,241.547607 
	C269.827606,232.460587 261.073242,222.512268 251.955215,212.943130 
	C250.845764,211.778778 249.523651,210.817078 247.987656,209.248535 
	C247.423264,208.485565 247.171310,208.235489 246.919357,207.985428 
	C246.919357,207.985428 247.013443,207.989517 246.848557,207.835846 
	C246.428055,207.452194 246.172440,207.222229 245.916840,206.992249 
	C245.916840,206.992249 246.008392,206.991898 245.846130,206.836807 
	C245.428223,206.451889 245.172562,206.222046 244.916901,205.992218 
	C244.916901,205.992218 245.008759,205.990509 244.846054,205.836578 
	C244.428497,205.451965 244.173645,205.221283 243.918777,204.990601 
	C243.918777,204.990601 244.010208,204.990051 243.847046,204.836182 
	C243.429504,204.452255 243.175110,204.222198 242.920715,203.992157 
	C242.920715,203.992157 243.008774,203.993698 242.847290,203.836273 
	C242.429916,203.450806 242.174011,203.222794 241.918121,202.994766 
	C241.918121,202.994766 242.004684,202.992523 241.843597,202.835907 
	C241.427521,202.450089 241.172531,202.220886 240.917557,201.991669 
	C240.917557,201.991669 241.009384,201.990784 240.846832,201.836517 
	C240.429489,201.451828 240.174698,201.221405 239.919907,200.990982 
	C239.919907,200.990982 240.009659,200.990738 239.847260,200.835449 
	C239.429962,200.450592 239.175079,200.221024 238.920212,199.991440 
	C238.920212,199.991440 239.009247,199.990921 238.846680,199.835190 
	C238.428665,199.449905 238.173233,199.220352 237.917801,198.990799 
	C237.917801,198.990799 238.009583,198.990173 237.847336,198.836136 
	C237.431076,198.451843 237.177078,198.221573 236.923065,197.991318 
	C236.923065,197.991318 237.010330,197.991547 236.849457,197.834595 
	C236.434540,197.448898 236.180496,197.220169 235.926437,196.991455 
	C235.926437,196.991455 236.008682,196.991058 235.847687,196.832336 
	C235.431778,196.446548 235.176865,196.219498 234.921951,195.992447 
	C234.921951,195.992447 235.008408,195.991653 234.847336,195.834595 
	C234.431381,195.449280 234.176498,195.221024 233.921631,194.992767 
	C233.921631,194.992767 234.007584,194.991623 233.846863,194.834702 
	C233.432022,194.449066 233.177933,194.220367 232.923828,193.991653 
	C232.923828,193.991653 233.008957,193.991211 232.847351,193.833832 
	C232.430954,193.447983 232.176147,193.219498 231.921341,192.991013 
	C231.921341,192.991013 232.009781,192.990372 231.847565,192.834595 
	C231.430466,192.449692 231.175598,192.220551 230.920731,191.991409 
	C230.920731,191.991409 231.009247,191.991180 230.848221,191.835114 
	C230.433334,191.449844 230.179489,191.220642 229.925644,190.991440 
	C229.925644,190.991440 230.010773,190.989655 229.843628,190.832886 
	C229.413818,190.449738 229.151184,190.223358 228.888535,189.996964 
z"/>
<path fill="#3A8F91" opacity="1.000000" stroke="none" 
	d="
M233.014023,194.250381 
	C233.177933,194.220367 233.432022,194.449066 233.847458,194.877686 
	C233.707260,194.888092 233.405746,194.698593 233.014023,194.250381 
z"/>
<path fill="#3A8F91" opacity="1.000000" stroke="none" 
	d="
M247.007538,208.252136 
	C247.171310,208.235489 247.423264,208.485565 247.833893,208.950439 
	C247.693634,208.949799 247.394684,208.734329 247.007538,208.252136 
z"/>
<path fill="#3A8F91" opacity="1.000000" stroke="none" 
	d="
M234.007568,195.255035 
	C234.176498,195.221024 234.431381,195.449280 234.847748,195.877823 
	C234.703979,195.891190 234.398743,195.704254 234.007568,195.255035 
z"/>
<path fill="#3A8F91" opacity="1.000000" stroke="none" 
	d="
M235.007568,196.254486 
	C235.176865,196.219498 235.431778,196.446548 235.847900,196.873444 
	C235.703812,196.887711 235.398499,196.702118 235.007568,196.254486 
z"/>
<path fill="#3A8F91" opacity="1.000000" stroke="none" 
	d="
M236.017151,197.249542 
	C236.180496,197.220169 236.434540,197.448898 236.849365,197.878235 
	C236.709381,197.888443 236.408615,197.698059 236.017151,197.249542 
z"/>
<path fill="#3A8F91" opacity="1.000000" stroke="none" 
	d="
M237.008026,198.254700 
	C237.177078,198.221573 237.431076,198.451843 237.847687,198.882019 
	C237.704514,198.893982 237.398758,198.706024 237.008026,198.254700 
z"/>
<path fill="#3A8F91" opacity="1.000000" stroke="none" 
	d="
M238.007202,199.251877 
	C238.173233,199.220352 238.428665,199.449905 238.846954,199.879700 
	C238.705414,199.890945 238.401001,199.701950 238.007202,199.251877 
z"/>
<path fill="#3A8F91" opacity="1.000000" stroke="none" 
	d="
M239.008972,200.252441 
	C239.175079,200.221024 239.429962,200.450592 239.847412,200.880325 
	C239.705887,200.891479 239.401810,200.702454 239.008972,200.252441 
z"/>
<path fill="#3A8F91" opacity="1.000000" stroke="none" 
	d="
M240.009094,201.252045 
	C240.174698,201.221405 240.429489,201.451828 240.847290,201.882446 
	C240.706299,201.892792 240.402298,201.702957 240.009094,201.252045 
z"/>
<path fill="#3A8F91" opacity="1.000000" stroke="none" 
	d="
M241.007660,202.251648 
	C241.172531,202.220886 241.427521,202.450089 241.844727,202.879211 
	C241.703888,202.889938 241.400818,202.700775 241.007660,202.251648 
z"/>
<path fill="#3A8F91" opacity="1.000000" stroke="none" 
	d="
M242.002838,203.258408 
	C242.174011,203.222794 242.429916,203.450806 242.846558,203.880280 
	C242.700729,203.895172 242.394135,203.708618 242.002838,203.258408 
z"/>
<path fill="#3A8F91" opacity="1.000000" stroke="none" 
	d="
M243.010452,204.252411 
	C243.175110,204.222198 243.429504,204.452255 243.847351,204.881897 
	C243.707260,204.891891 243.403732,204.702286 243.010452,204.252411 
z"/>
<path fill="#3A8F91" opacity="1.000000" stroke="none" 
	d="
M244.009094,205.251160 
	C244.173645,205.221283 244.428497,205.451965 244.846924,205.882507 
	C244.706787,205.892166 244.403091,205.701950 244.009094,205.251160 
z"/>
<path fill="#3A8F91" opacity="1.000000" stroke="none" 
	d="
M245.003952,206.255173 
	C245.172562,206.222046 245.428223,206.451889 245.846344,206.882584 
	C245.702866,206.895020 245.396942,206.706573 245.003952,206.255173 
z"/>
<path fill="#3A8F91" opacity="1.000000" stroke="none" 
	d="
M246.005157,207.254364 
	C246.172440,207.222229 246.428055,207.452194 246.846527,207.882889 
	C246.704071,207.894577 246.398773,207.705521 246.005157,207.254364 
z"/>
<path fill="#3A8F91" opacity="1.000000" stroke="none" 
	d="
M232.012146,193.249878 
	C232.176147,193.219498 232.430954,193.447983 232.847626,193.876404 
	C232.707306,193.887161 232.405136,193.697968 232.012146,193.249878 
z"/>
<path fill="#3A8F91" opacity="1.000000" stroke="none" 
	d="
M231.009811,192.252014 
	C231.175598,192.220551 231.430466,192.449692 231.847900,192.878815 
	C231.706604,192.890076 231.402740,192.701340 231.009811,192.252014 
z"/>
<path fill="#3A8F91" opacity="1.000000" stroke="none" 
	d="
M230.012497,191.252533 
	C230.179489,191.220642 230.433334,191.449844 230.848358,191.879364 
	C230.706146,191.890991 230.402740,191.702301 230.012497,191.252533 
z"/>
<path fill="#3A8F91" opacity="1.000000" stroke="none" 
	d="
M228.989670,190.254837 
	C229.151184,190.223358 229.413818,190.449738 229.844528,190.875458 
	C229.705322,190.887436 229.398071,190.700073 228.989670,190.254837 
z"/>
<path fill="#3A8F91" opacity="1.000000" stroke="none" 
	d="
M227.017044,188.253204 
	C227.184814,188.225952 227.437912,188.461853 227.848175,188.905121 
	C227.704346,188.913773 227.403351,188.715057 227.017044,188.253204 
z"/>
<path fill="#3A8F91" opacity="1.000000" stroke="none" 
	d="
M226.013275,187.252045 
	C226.181046,187.217896 226.434982,187.444000 226.849030,187.869446 
	C226.705902,187.883301 226.402679,187.697815 226.013275,187.252045 
z"/>
<path fill="#3A8F91" opacity="1.000000" stroke="none" 
	d="
M225.030975,186.243698 
	C225.189713,186.218079 225.440277,186.446854 225.850662,186.874283 
	C225.714584,186.881317 225.418701,186.689713 225.030975,186.243698 
z"/>
<path fill="#3A8F91" opacity="1.000000" stroke="none" 
	d="
M224.027313,185.243607 
	C224.185623,185.216095 224.437668,185.441849 224.850800,185.864716 
	C224.714951,185.873489 224.418015,185.685181 224.027313,185.243607 
z"/>
<path fill="#3A8F91" opacity="1.000000" stroke="none" 
	d="
M223.020081,184.249771 
	C223.184708,184.217804 223.437698,184.443466 223.850616,184.867859 
	C223.709824,184.880188 223.409134,184.693802 223.020081,184.249771 
z"/>
<path fill="#3A8F91" opacity="1.000000" stroke="none" 
	d="
M222.015900,183.248428 
	C222.179642,183.217300 222.433792,183.443802 222.848709,183.869492 
	C222.708420,183.881149 222.407349,183.693619 222.015900,183.248428 
z"/>
<path fill="#3A8F91" opacity="1.000000" stroke="none" 
	d="
M221.022705,182.250931 
	C221.190948,182.218536 221.441086,182.447281 221.850586,182.874847 
	C221.708160,182.886459 221.406387,182.699265 221.022705,182.250931 
z"/>
<path fill="#3A8F91" opacity="1.000000" stroke="none" 
	d="
M220.037598,181.237000 
	C220.189468,181.215286 220.440781,181.442368 220.852631,181.867188 
	C220.721146,181.871872 220.429077,181.678833 220.037598,181.237000 
z"/>
<path fill="#3A8F91" opacity="1.000000" stroke="none" 
	d="
M219.011734,180.251251 
	C219.178818,180.215775 219.433075,180.439926 219.849335,180.860931 
	C219.707199,180.875473 219.403046,180.693192 219.011734,180.251251 
z"/>
<path fill="#3A8F91" opacity="1.000000" stroke="none" 
	d="
M218.011429,179.250977 
	C218.177490,179.219116 218.431961,179.447769 218.848526,179.876068 
	C218.707031,179.887634 218.403427,179.699570 218.011429,179.250977 
z"/>
<path fill="#3A8F91" opacity="1.000000" stroke="none" 
	d="
M217.023895,178.243744 
	C217.180893,178.219498 217.433167,178.450195 217.849121,178.878860 
	C217.714920,178.884109 217.417038,178.691391 217.023895,178.243744 
z"/>
<path fill="#3A8F91" opacity="1.000000" stroke="none" 
	d="
M216.002609,177.252396 
	C216.154175,177.228287 216.414856,177.454346 216.845490,177.876648 
	C216.714218,177.882782 216.412964,177.692673 216.002609,177.252396 
z"/>
</svg>