<svg width="334" height="380" xmlns="http://www.w3.org/2000/svg" xmlns:xlink="http://www.w3.org/1999/xlink" overflow="hidden"><defs><clipPath id="clip0"><rect x="453" y="169" width="334" height="380"/></clipPath></defs><g clip-path="url(#clip0)" transform="translate(-453 -169)"><path d="M764.853 253.429C772.116 265.485 775.445 278.394 777.192 291.849 780.019 313.631 775.198 334.282 766.334 353.771 762.37 362.487 761.035 369.541 763.293 379.268 770.699 411.167 765.96 441.679 747.441 469.306 731.461 493.146 708.553 506.907 681.065 513.717 672.53 515.832 664.01 518.016 655.422 519.892 653.307 520.355 650.781 520.243 648.74 519.537 632.717 513.998 616.866 514.874 600.685 519.255 595.587 520.635 589.594 519.657 584.183 518.745 573.922 517.014 563.785 514.55 553.596 512.39 553.528 511.911 553.459 511.431 553.391 510.951 556.944 508.75 560.506 506.563 564.05 504.345 582.351 492.891 599.419 479.957 612.142 462.233 620.689 450.326 626.229 437.289 627.285 422.27 628.832 400.274 621.424 382.679 603.88 369.321 603.351 368.918 602.815 368.177 602.287 368.182 600.194 368.2 598.103 368.452 596.011 368.618 596.406 370.638 596.141 373.241 597.319 374.569 600.935 378.644 605.644 381.813 608.958 386.084 618.991 399.019 620.766 413.846 617.697 429.538 613.933 448.786 602.624 463.587 588.214 475.714 576.717 485.39 564.244 494.316 551.058 501.471 538.481 508.296 524.709 513.376 510.93 517.416 498.282 521.123 484.927 522.431 471.877 524.76 470.904 524.934 469.67 525.194 468.919 524.772 466.521 523.427 464.293 521.779 462 520.247 463.796 518.351 465.242 515.564 467.445 514.699 483.825 508.267 500.757 503.097 516.742 495.834 539.539 485.474 559.178 470.414 575.452 451.214 576.849 449.565 578.398 448.037 579.717 446.331 581.422 444.126 581.117 442.146 578.964 440.237 576.704 438.233 575.084 439.183 573.429 440.952 568.429 446.297 563.595 451.811 558.381 456.939 540.916 474.115 520.233 486.265 497.517 495.12 490.699 497.778 483.802 500.232 476.914 502.704 475.262 503.297 473.501 503.587 471.121 504.184 474.047 496.018 476.591 488.581 479.459 481.271 479.895 480.158 481.745 479.441 483.081 478.86 500.044 471.478 513.962 460.103 526.022 446.295 527.1 445.061 528.541 443.612 528.635 442.184 528.757 440.348 527.689 438.433 527.133 436.553 525.334 437.149 522.935 437.204 521.827 438.426 510.504 450.909 498.743 462.764 481.614 469.809 482.472 464.472 483.16 459.883 483.953 455.313 487.622 434.17 493.823 413.749 505.811 395.87 513.707 384.094 523.503 373.549 532.856 362.806 535.857 359.358 536.052 357.178 534.187 352.881 530.396 344.146 526.848 335.008 525.251 325.686 522.165 307.674 523.247 289.595 529.022 272.07 533.011 259.964 538.849 248.74 547.516 239.318 550.659 235.901 551.389 232.947 550.075 228.63 545.615 213.974 543.003 198.984 543.011 183.609 543.015 177.549 544.625 176.502 550.082 179.973 560.455 186.57 570.699 193.39 580.735 200.486 585.732 204.02 590.392 208.127 594.749 212.434 597.755 215.405 600.589 215.452 604.233 214.255 621.092 208.719 638.435 205.887 656.175 206.227 670.846 206.507 685.279 208.731 699.052 214.04 703.21 215.643 706.01 214.859 709.201 211.69 722.012 198.97 736.66 188.591 752.301 179.643 757.589 176.618 759.365 177.718 759.053 183.73 758.252 199.153 756.835 214.452 749.766 228.671 748.929 230.355 750.154 233.779 751.466 235.679 755.603 241.672 760.236 247.324 764.853 253.429M757.994 264.125C757.994 264.125 757.869 264.38 757.837 263.807 757.523 263.624 757.21 263.44 757.065 263.216 757.065 263.216 756.925 263.318 757.019 262.597 754.618 260.555 752.218 258.512 750.057 256.465 750.057 256.465 749.82 256.435 749.789 255.851 749.448 255.77 749.106 255.688 748.73 255.527 748.73 255.527 748.654 255.568 748.743 254.822 747.751 254.441 746.759 254.06 745.74 253.582 745.74 253.582 745.638 253.575 745.729 252.81 743.684 251.971 741.638 251.132 739.348 250.36 739.348 250.36 739.156 250.192 738.826 249.53 730.791 244.597 721.99 245.878 713.345 246.664 710.943 246.882 708.667 248.487 706.095 249.329 706.095 249.329 706.35 249.417 705.685 249.247 705.156 249.595 704.627 249.943 703.932 250.43 703.932 250.43 703.725 250.368 702.963 250.238 702.436 250.659 701.91 251.08 701.196 251.357 701.196 251.357 701.416 251.443 700.862 251.383 700.609 251.636 700.357 251.889 699.922 252.34 699.922 252.34 699.653 252.318 698.903 252.224 698.417 252.661 697.931 253.099 697.147 253.505 697.147 253.505 697.447 253.502 696.885 253.425 696.662 253.706 696.438 253.986 696.163 254.136 696.163 254.136 696.265 254.232 695.521 254.137 694.748 254.833 693.976 255.53 693.126 256.122 693.126 256.122 693.237 256.188 692.567 256.166 692.222 256.628 691.878 257.089 691.514 257.272 691.514 257.272 691.482 257.549 690.903 257.463 690.731 257.779 690.56 258.096 690.43 258.164 690.43 258.164 690.415 258.417 689.686 258.258 688.263 259.965 686.839 261.672 685.173 263.369 685.173 263.369 685.414 263.339 684.834 263.406 684.712 263.745 684.589 264.084 684.34 264.091 684.34 264.091 684.506 264.405 683.848 264.451 683.624 265.024 683.399 265.598 683.118 266.084 683.118 266.084 683.207 266.139 682.494 266.191 682.032 267.159 681.57 268.128 681.094 269.071 681.094 269.071 681.123 269.076 680.423 269.157 679.702 270.02 678.841 270.801 678.283 271.759 672.817 281.15 671.521 291.411 671.267 302.076 669.186 302.38 667.105 302.684 664.779 302.145 663.946 273.657 648.215 253.396 622.46 247.637 592.512 240.942 562.246 263.67 561.221 293.626 560.007 329.085 594.649 356.142 628.994 346.695 638.388 344.111 646.16 338.903 654.284 333.089 660.978 339.315 667.687 345.525 674.362 351.771 678.132 355.298 681.549 355.119 684.157 350.724 686.175 347.324 687.592 343.568 690.045 339.99 692.078 340.318 694.11 340.647 696.112 341.008 696.112 341.008 696.131 340.969 696.375 341.455 696.71 341.551 697.045 341.648 697.261 341.791 697.261 341.791 697.296 341.668 697.554 342.358 698.245 342.498 698.937 342.638 699.911 342.756 699.911 342.756 700.107 342.959 700.228 343.687 703.719 345.124 706.791 348.403 711.919 346.106 712.975 346.215 714.032 346.324 715.373 347.133 723.846 349.31 731.681 346.987 739.347 343.664 739.77 343.48 739.86 342.53 740.132 342.005 740.132 342.005 740.075 341.96 740.847 342.021 742.278 341.012 743.708 340.002 745.143 339.01 745.143 339.01 745.126 339.001 745.87 339.019 749.964 338.197 752.923 336.082 754.114 331.982 754.114 331.982 754.008 331.91 754.738 331.93 755.744 330.513 756.75 329.097 757.793 327.963 757.793 327.963 757.791 327.679 758.381 327.656 758.484 327.314 758.588 326.971 759.053 326.605 759.053 326.605 758.69 326.594 759.438 326.635 759.983 325.396 760.528 324.157 761.133 323.01 761.133 323.01 761.04 322.95 761.753 322.913 762.406 322.221 763.264 321.634 763.682 320.821 770.826 306.936 772.079 292.528 766.787 277.819 765.644 274.644 763.022 272 761.154 269.08 761.154 269.08 761.105 269.143 761.16 268.405 760.344 267.426 759.528 266.447 758.829 265.511 758.829 265.511 758.729 265.443 758.782 264.863 758.463 264.693 758.144 264.523 757.994 264.125M739.953 431.424C748.631 424.661 751.343 415.3 750.896 404.909 750.81 402.918 748.451 399.661 746.753 399.388 743.297 398.831 742.383 401.944 742.182 405.083 741.929 409.04 741.938 413.132 740.875 416.895 738.153 426.53 728.189 429.133 721.616 421.74 718.941 418.732 718.039 414.2 716.059 410.507 715.157 408.823 713.595 407.491 712.333 406 710.925 407.343 709.175 408.482 708.208 410.09 707.312 411.577 707.448 413.643 706.794 415.323 702.044 427.52 689.294 431.049 681.086 422.084 678.302 419.043 677.298 414.437 675.125 410.755 673.935 408.738 671.978 405.651 670.412 405.679 666.703 405.744 666.572 409.33 667.079 412.179 668.792 421.812 674.298 428.697 682.839 433.384 689.714 437.156 696.396 436.46 702.689 432.451 706.107 430.274 708.956 427.207 712.084 424.522 723.845 435.611 728.932 436.994 739.953 431.424M714.833 465.143C706.797 472.606 700.064 471.5 695.141 461.723 693.968 459.393 693.865 456.487 692.536 454.288 691.623 452.778 689.443 452.032 687.828 450.945 686.891 452.434 685.076 453.975 685.16 455.406 685.706 464.82 690.396 472.028 698.388 476.815 700.633 478.159 703.908 478.898 706.451 478.448 717.641 476.466 724.515 469.186 728.075 458.794 728.558 457.385 726.548 455.124 725.693 453.257 724.156 454.168 722.219 454.755 721.166 456.055 718.995 458.736 717.297 461.797 714.833 465.143Z" fill="#219799" fill-rule="evenodd"/><path d="M761.27 323C767.797 309.772 770.69 295.982 766.095 281.364 764.799 277.242 762.752 273.356 761 269 762.911 271.556 765.56 274.226 766.714 277.433 772.059 292.29 770.793 306.843 763.578 320.868 763.155 321.689 762.289 322.282 761.27 323Z" fill="#219799" fill-rule="evenodd"/><path d="M673.346 301.608C672.957 302.089 672.678 302.045 672.199 301.908 671.428 291.256 672.769 281.013 678.424 271.638 679.001 270.682 679.893 269.902 681 269 675.64 278.982 672.843 289.672 673.346 301.608Z" fill="#219799" fill-rule="evenodd"/><path d="M715 346.911C723.372 346.588 731.741 345.811 739.942 342 740.078 342.58 739.986 343.548 739.555 343.734 731.75 347.119 723.772 349.485 715 346.911Z" fill="#219799" fill-rule="evenodd"/><path d="M739 250C728.658 246.768 718.077 246.271 707 249.555 708.911 248.601 711.169 246.966 713.552 246.744 722.131 245.944 730.863 244.64 739 250Z" fill="#219799" fill-rule="evenodd"/><path d="M745 339C747.611 336.693 750.63 334.396 754 332 753.123 336.088 749.885 338.192 745 339Z" fill="#219799" fill-rule="evenodd"/><path d="M700 343C703.508 343.671 707.079 344.756 711 346.03 706.864 348.77 703.681 345.046 700 343Z" fill="#219799" fill-rule="evenodd"/><path d="M757 263C754.681 261.327 752.409 259.304 750 257 752.258 258.696 754.652 260.673 757 263Z" fill="#219799" fill-rule="evenodd"/><path d="M690 258C688.983 259.681 687.63 261.281 686 263 687.036 261.386 688.35 259.653 690 258Z" fill="#219799" fill-rule="evenodd"/><path d="M690.012 340.256C689.936 339.599 690.225 338.953 690.696 338 692.526 338.702 694.173 339.71 696 341 694.245 340.943 692.312 340.604 690.012 340.256Z" fill="#219799" fill-rule="evenodd"/><path d="M754 332C754.673 330.704 755.699 329.418 757 328 756.301 329.249 755.327 330.629 754 332Z" fill="#219799" fill-rule="evenodd"/><path d="M746 253C744.052 252.392 742.152 251.348 740 250 741.848 250.652 743.948 251.608 746 253Z" fill="#219799" fill-rule="evenodd"/><path d="M740 342C741.244 340.996 742.932 340.024 745 339 743.734 339.976 742.089 341.004 740 342Z" fill="#219799" fill-rule="evenodd"/><path d="M759 327C759.267 325.711 759.968 324.444 761 323 760.699 324.222 760.066 325.623 759 327Z" fill="#219799" fill-rule="evenodd"/><path d="M761 269C760.337 268.35 759.696 267.331 759 266 759.637 266.669 760.33 267.65 761 269Z" fill="#219799" fill-rule="evenodd"/><path d="M683 266C682.783 266.928 682.079 267.884 681 269 681.254 268.117 681.884 267.072 683 266Z" fill="#219799" fill-rule="evenodd"/><path d="M749 255C748.027 254.925 747.103 254.557 746 254 746.897 254.109 747.973 254.408 749 255Z" fill="#219799" fill-rule="evenodd"/><path d="M696 254C695.445 254.683 694.419 255.319 693 256 693.581 255.348 694.556 254.65 696 254Z" fill="#219799" fill-rule="evenodd"/><path d="M683.989 264C684.07 264.595 683.713 265.218 683.006 266 682.954 265.448 683.252 264.738 683.989 264Z" fill="#219799" fill-rule="evenodd"/><path d="M706 249C705.742 249.391 705.069 249.692 704 250 704.264 249.641 704.924 249.276 706 249Z" fill="#219799" fill-rule="evenodd"/><path d="M703 250C702.891 250.359 702.548 250.663 702 251 702.119 250.671 702.443 250.307 703 250Z" fill="#219799" fill-rule="evenodd"/><path d="M699 252C698.902 252.343 698.556 252.647 698 253 698.11 252.686 698.431 252.323 699 252Z" fill="#219799" fill-rule="evenodd"/><path d="M697 342.081C697.507 341.833 698.144 342.166 699 342.933 698.523 343.133 697.826 342.897 697 342.081Z" fill="#219799" fill-rule="evenodd"/><path d="M693 256C692.958 256.323 692.607 256.636 692 257 692.059 256.697 692.376 256.344 693 256Z" fill="#219799" fill-rule="evenodd"/><path d="M750 256.72C749.651 257.257 749.349 257.005 749 256.112 749.254 255.862 749.619 256.016 750 256.72Z" fill="#219799" fill-rule="evenodd"/><path d="M696 341.144C696.209 340.811 696.541 341.057 697 341.858 696.792 342.183 696.457 341.953 696 341.144Z" fill="#219799" fill-rule="evenodd"/><path d="M691.874 257C692.198 257.464 691.892 257.76 691.024 258 690.914 257.691 691.174 257.32 691.874 257Z" fill="#219799" fill-rule="evenodd"/><path d="M696.994 253C697.053 253.352 696.712 253.655 696.005 254 695.957 253.679 696.275 253.314 696.994 253Z" fill="#219799" fill-rule="evenodd"/><path d="M685.909 263C686.171 263.276 685.861 263.588 685.082 264 684.853 263.746 685.096 263.391 685.909 263Z" fill="#219799" fill-rule="evenodd"/><path d="M700.999 251C701.023 251.357 700.687 251.672 700.001 252 699.98 251.661 700.309 251.31 700.999 251Z" fill="#219799" fill-rule="evenodd"/><path d="M758.255 328C757.751 327.633 758.007 327.328 758.91 327 759.133 327.265 758.952 327.627 758.255 328Z" fill="#219799" fill-rule="evenodd"/><path d="M758 263.97C757.703 264.107 757.388 263.778 757 263.027 757.278 262.904 757.63 263.203 758 263.97Z" fill="#219799" fill-rule="evenodd"/><path d="M759 265.962C758.668 266.119 758.367 265.785 758 265.032 758.3 264.898 758.665 265.185 759 265.962Z" fill="#219799" fill-rule="evenodd"/><path d="M665.406 534.555C666.428 545.855 664.133 548.215 652.826 547.985 628.339 547.488 603.849 547.102 579.361 546.643 575.935 546.578 571.825 547.431 570.168 543.366 568.504 539.282 571.045 535.953 573.622 533.031 575.216 531.223 577.162 529.727 579.638 527.46 572.838 525.957 566.648 525.355 561.055 523.203 546.843 517.737 533.543 518.516 519.222 524.134 503.415 530.335 486.338 532.561 469.256 533.27 463.286 533.518 457.925 531.969 454.697 526.402 451.516 520.915 453.229 515.858 456.367 510.932 465.929 495.923 471.263 479.467 473.835 461.886 478.237 431.793 487.604 403.495 506.333 379.005 511.377 372.409 517.044 366.27 522.683 360.159 524.792 357.873 525.093 356.217 523.944 353.19 508.521 312.566 511.422 273.875 536.998 237.9 539.807 233.95 541.119 230.79 539.4 225.739 534.292 210.725 533.547 195.048 534.2 179.318 534.534 171.288 540.84 167.197 548.531 169.762 561.765 174.175 572.304 183.093 583.479 190.893 588.648 194.502 593.183 199.012 598.291 202.721 599.852 203.855 602.602 204.505 604.405 203.984 635.937 194.869 667.454 194.315 698.955 203.872 702.383 204.912 704.095 203.457 706.309 201.459 719.46 189.588 733.441 178.802 749.497 171.123 752.707 169.588 757.045 168.817 760.427 169.592 766.157 170.906 767.662 176.27 767.556 181.479 767.242 196.996 766.007 212.394 760.594 227.191 759.91 229.062 760.32 232.265 761.55 233.763 776.687 252.195 784.588 273.266 785.809 297.03 787.044 321.069 782.323 343.656 770.458 364.72 769.558 366.318 769.668 368.912 770.177 370.811 781.127 411.687 774.336 449.064 747.981 482.433 738.265 494.735 726.144 504.332 712.103 511.425 710.665 512.152 709.269 512.964 706.8 514.313 709.816 515.519 711.883 516.265 713.884 517.16 721.472 520.552 727.565 525.488 730.103 533.76 732.451 541.417 729.533 545.324 721.605 545.338 707.427 545.364 693.249 545.272 679.073 545.402 675.9 545.431 673.843 544.697 672.331 541.608 670.97 538.827 668.676 536.502 666.283 533.596 665.216 533.216 664.661 533.216 663.341 533.216 664.461 533.942 664.933 534.249 665.406 534.555M764.488 252.838C760.045 247.045 755.41 241.384 751.271 235.38 749.959 233.477 748.734 230.049 749.571 228.362 756.643 214.12 758.06 198.797 758.861 183.349 759.174 177.328 757.397 176.226 752.107 179.255 736.46 188.218 721.807 198.613 708.992 211.354 705.799 214.528 702.998 215.313 698.838 213.708 685.06 208.39 670.622 206.162 655.946 205.881 638.199 205.542 620.85 208.378 603.985 213.923 600.34 215.121 597.504 215.075 594.497 212.098 590.139 207.784 585.477 203.671 580.478 200.132 570.439 193.024 560.191 186.193 549.814 179.586 544.355 176.109 542.744 177.158 542.741 183.228 542.733 198.628 545.345 213.641 549.807 228.32 551.121 232.645 550.391 235.603 547.247 239.026 538.577 248.463 532.737 259.704 528.746 271.83 522.969 289.383 521.887 307.491 524.974 325.531 526.571 334.868 530.121 344.021 533.913 352.77 535.779 357.074 535.584 359.257 532.581 362.71 523.225 373.47 513.426 384.032 505.527 395.827 493.535 413.735 487.332 434.188 483.661 455.365 482.868 459.943 482.18 464.538 481.321 469.885 498.456 462.828 510.222 450.954 521.549 438.451 522.658 437.228 525.057 437.172 526.857 436.575 527.413 438.459 528.481 440.376 528.359 442.215 528.265 443.645 526.824 445.096 525.745 446.333 513.681 460.163 499.758 471.555 482.788 478.95 481.452 479.532 479.602 480.249 479.165 481.364 476.297 488.686 473.751 496.135 470.824 504.314 473.205 503.716 474.967 503.425 476.619 502.832 483.51 500.356 490.41 497.898 497.229 495.236 519.954 486.366 540.645 474.197 558.116 456.993 563.332 451.857 568.168 446.335 573.17 440.981 574.826 439.209 576.446 438.257 578.707 440.265 580.86 442.177 581.165 444.161 579.46 446.368 578.14 448.078 576.591 449.608 575.193 451.26 558.914 470.49 539.267 485.574 516.462 495.95 500.472 503.226 483.533 508.403 467.147 514.846 464.944 515.712 463.497 518.503 461.7 520.403 463.994 521.936 466.223 523.587 468.621 524.935 469.373 525.357 470.608 525.096 471.581 524.923 484.635 522.59 497.995 521.28 510.648 517.567 524.432 513.521 538.209 508.433 550.791 501.597 563.981 494.43 576.459 485.49 587.96 475.798 602.375 463.652 613.689 448.828 617.454 429.549 620.524 413.832 618.749 398.981 608.711 386.026 605.397 381.747 600.686 378.574 597.069 374.492 595.89 373.163 596.155 370.555 595.76 368.531 597.852 368.366 599.944 368.113 602.038 368.095 602.566 368.09 603.102 368.833 603.631 369.236 621.182 382.615 628.593 400.238 627.045 422.269 625.989 437.312 620.447 450.37 611.897 462.296 599.17 480.049 582.095 493.003 563.787 504.475 560.242 506.696 556.679 508.887 553.124 511.092 553.193 511.572 553.261 512.053 553.33 512.533 563.522 514.696 573.662 517.164 583.927 518.898 589.341 519.812 595.335 520.791 600.435 519.408 616.623 515.021 632.479 514.144 648.509 519.692 650.55 520.398 653.077 520.51 655.193 520.047 663.783 518.168 672.307 515.98 680.845 513.862 708.343 507.041 731.26 493.258 747.245 469.38 765.771 441.71 770.512 411.148 763.103 379.199 760.844 369.456 762.179 362.391 766.145 353.661 775.012 334.141 779.835 313.457 777.007 291.64 775.26 278.164 771.93 265.234 764.488 252.838Z" fill="#166264" fill-rule="evenodd"/><path d="M673.306 302.152C687.424 310.692 693.048 321.937 690.341 337.223 689.871 338.521 689.568 339.147 689.264 339.773 687.585 343.361 686.171 347.106 684.159 350.497 681.558 354.88 678.149 355.06 674.388 351.541 667.731 345.312 661.039 339.118 654 332.818 654.114 330.846 655.015 328.961 654.993 327.085 654.889 317.787 658.275 310.016 664.908 303.178 667.15 302.585 669.225 302.282 671.901 302 672.76 302.12 673.028 302.164 673.306 302.152Z" fill="#166264" fill-rule="evenodd"/><path d="M739.707 431.7C729.01 437.142 723.928 435.741 712.178 424.513 709.053 427.232 706.206 430.338 702.792 432.542 696.504 436.6 689.828 437.305 682.96 433.486 674.426 428.74 668.926 421.77 667.214 412.017 666.708 409.132 666.839 405.501 670.544 405.435 672.108 405.407 674.064 408.533 675.253 410.575 677.423 414.303 678.427 418.966 681.208 422.045 689.409 431.122 702.147 427.549 706.892 415.2 707.546 413.499 707.41 411.407 708.305 409.901 709.272 408.273 711.019 407.12 712.426 405.76 713.688 407.27 715.247 408.619 716.149 410.324 718.127 414.063 719.028 418.651 721.7 421.697 728.267 429.182 738.223 426.547 740.942 416.792 742.004 412.981 741.995 408.838 742.248 404.832 742.449 401.654 743.362 398.502 746.815 399.066 748.511 399.343 750.868 402.64 750.954 404.656 751.401 415.177 748.691 424.655 739.707 431.7Z" fill="#166264" fill-rule="evenodd"/><path d="M714.967 465.162C717.146 461.996 718.845 458.894 721.016 456.178 722.069 454.86 724.006 454.266 725.543 453.343 726.399 455.235 728.409 457.525 727.926 458.953 724.366 469.482 717.49 476.859 706.298 478.866 703.755 479.322 700.479 478.574 698.234 477.212 690.24 472.362 685.549 465.058 685.003 455.52 684.92 454.07 686.735 452.509 687.672 451 689.286 452.102 691.468 452.857 692.381 454.387 693.71 456.615 693.813 459.56 694.986 461.92 699.91 471.826 706.645 472.947 714.967 465.162Z" fill="#166264" fill-rule="evenodd"/><path d="M605.032 278.979C613.214 274.749 620.515 274.967 625.907 279.998 632.779 286.41 634.358 294.491 631.93 303.292 629.813 310.962 623.247 316.285 615.735 316.942 604.763 317.901 594.894 306.835 596.1 294.783 596.736 288.429 599.132 282.919 605.032 278.979Z" fill="#166264" fill-rule="evenodd"/><path d="M723.571 315.916C713.524 316.555 707.748 313.592 704.186 306.273 700.299 298.285 701.698 288.395 707.569 282.369 715.65 274.074 729.026 275.602 734.942 285.496 739.894 293.777 738.782 305.161 731.964 311.421 729.799 313.409 726.675 314.388 723.571 315.916Z" fill="#166264" fill-rule="evenodd"/><path d="M653.775 333.179C646.344 339.227 638.538 344.479 629.103 347.084 594.606 356.612 559.812 329.325 561.031 293.566 562.061 263.356 592.46 240.435 622.54 247.188 648.408 252.995 664.208 273.427 665 302.875 658.444 310.215 655.034 318.073 655.14 327.474 655.161 329.371 654.254 331.277 653.775 333.179M604.846 279.018C599.299 282.794 596.915 288.353 596.283 294.763 595.083 306.922 604.9 318.086 615.814 317.118 623.287 316.456 629.819 311.085 631.925 303.347 634.341 294.469 632.769 286.316 625.933 279.847 620.57 274.772 613.307 274.552 604.846 279.018Z" fill="#BEEFF0" fill-rule="evenodd"/><path d="M699.317 252.057C699.317 252.057 699.586 252.078 699.945 251.97 700.562 251.636 700.82 251.409 701.078 251.183 701.078 251.183 700.859 251.098 701.285 251.13 702.269 250.811 702.828 250.461 703.386 250.11 703.386 250.11 703.593 250.172 703.994 250.097 704.933 249.735 705.471 249.448 706.009 249.161 706.009 249.161 705.755 249.073 706.281 249.105 717.557 245.949 728.214 246.436 738.795 249.935 738.795 249.935 738.986 250.102 739.352 250.335 741.57 251.482 743.421 252.397 745.272 253.312 745.272 253.312 745.373 253.318 745.552 253.608 746.582 254.365 747.434 254.833 748.286 255.301 748.286 255.301 748.362 255.259 748.483 255.513 748.826 256.026 749.109 256.159 749.451 256.166 749.451 256.166 749.688 256.197 749.705 256.489 751.999 258.867 754.276 260.952 756.552 263.036 756.552 263.036 756.692 262.935 756.673 263.213 756.934 263.693 757.214 263.895 757.494 264.096 757.494 264.096 757.619 263.842 757.593 264.204 757.829 264.764 758.092 264.961 758.355 265.158 758.355 265.158 758.455 265.225 758.462 265.514 759.223 266.819 759.976 267.835 760.729 268.85 760.729 268.85 760.778 268.788 760.79 269.161 762.487 273.481 764.513 277.322 765.795 281.395 770.342 295.841 767.479 309.469 760.664 322.559 760.664 322.559 760.757 322.619 760.441 322.73 759.523 323.96 758.919 325.078 758.315 326.196 758.315 326.196 758.678 326.208 758.266 326.311 757.57 326.633 757.424 326.921 757.417 327.279 757.417 327.279 757.419 327.563 757.117 327.556 755.756 328.868 754.696 330.185 753.637 331.502 753.637 331.502 753.742 331.575 753.387 331.619 750.275 333.968 747.518 336.274 744.76 338.58 744.76 338.58 744.778 338.59 744.446 338.631 742.647 339.626 741.18 340.58 739.713 341.534 739.713 341.534 739.769 341.579 739.377 341.569 731.315 345.27 723.102 346.032 714.742 345.999 713.686 345.89 712.63 345.782 710.838 345.532 706.658 344.438 703.214 343.485 699.771 342.532 699.771 342.532 699.575 342.328 699.216 342.082 698.226 341.638 697.594 341.44 696.961 341.243 696.961 341.243 696.926 341.365 696.859 341.11 696.46 340.751 696.129 340.648 695.797 340.545 695.797 340.545 695.778 340.584 695.605 340.296 693.702 339.03 691.971 338.052 690.216 336.7 692.737 321.698 687.103 310.444 673.056 301.428 672.57 289.494 675.271 278.805 680.799 268.784 680.799 268.784 680.77 268.779 681.052 268.643 681.85 267.622 682.366 266.737 682.881 265.852 682.881 265.852 682.793 265.798 683.084 265.714 683.644 265.127 683.912 264.624 684.18 264.121 684.18 264.121 684.014 263.808 684.315 263.878 684.773 263.65 684.93 263.354 685.087 263.057 685.087 263.057 684.846 263.087 685.268 262.975 687.154 261.29 688.619 259.718 690.085 258.145 690.085 258.145 690.099 257.892 690.323 257.963 690.875 257.883 691.076 257.631 691.152 257.278 691.152 257.278 691.183 257.002 691.473 257.076 692.143 256.74 692.524 256.33 692.905 255.92 692.905 255.92 692.794 255.854 693.145 255.86 694.307 255.233 695.119 254.6 695.931 253.967 695.931 253.967 695.83 253.871 696.112 253.903 696.634 253.703 696.873 253.471 697.112 253.239 697.112 253.239 696.813 253.241 697.28 253.199 698.271 252.79 698.794 252.423 699.317 252.057M723.647 315.593C726.32 314.138 729.429 313.149 731.584 311.141 738.37 304.819 739.477 293.32 734.549 284.955 728.66 274.961 715.346 273.418 707.303 281.797 701.459 287.884 700.066 297.874 703.936 305.942 707.481 313.334 713.23 316.327 723.647 315.593Z" fill="#BEEFF0" fill-rule="evenodd"/></g></svg>